<svg width="214" height="63" viewBox="0 0 214 63" fill="none" xmlns="http://www.w3.org/2000/svg">
<g clip-path="url(#clip0_1_2)">
<path d="M65.416 27.512L62.992 34.664H67.816L65.416 27.512ZM58.12 41V40.016L60.136 39.704L65.248 24.824H66.76L71.872 39.8L73.672 40.016V41H67.144V40.016L69.496 39.728L68.176 35.792H62.608L61.264 39.704L63.616 40.016V41H58.12ZM74.8975 41V40.136L76.6735 39.8C76.6895 39.192 76.6975 38.536 76.6975 37.832C76.7135 37.128 76.7215 36.504 76.7215 35.96V34.808C76.7215 34.152 76.7135 33.608 76.6975 33.176C76.6975 32.744 76.6815 32.288 76.6495 31.808L74.7535 31.592V30.752L78.1135 29.288L78.4735 29.528L78.6655 31.472C79.2255 30.832 79.8815 30.312 80.6335 29.912C81.3855 29.496 82.1295 29.288 82.8655 29.288C83.6175 29.288 84.2255 29.464 84.6895 29.816C85.1695 30.168 85.5135 30.744 85.7215 31.544C86.3295 30.792 87.0095 30.232 87.7615 29.864C88.5135 29.48 89.2815 29.288 90.0655 29.288C91.0415 29.288 91.7935 29.616 92.3215 30.272C92.8655 30.928 93.1375 32 93.1375 33.488V35.96C93.1375 36.504 93.1375 37.128 93.1375 37.832C93.1535 38.536 93.1695 39.192 93.1855 39.8L94.8655 40.136V41H89.2975V40.136L91.0735 39.8C91.0895 39.208 91.0975 38.56 91.0975 37.856C91.1135 37.136 91.1215 36.504 91.1215 35.96V33.872C91.1215 32.752 90.9615 32 90.6415 31.616C90.3215 31.216 89.8095 31.016 89.1055 31.016C88.6095 31.016 88.0975 31.128 87.5695 31.352C87.0575 31.576 86.4975 31.968 85.8895 32.528C85.9055 32.704 85.9135 32.896 85.9135 33.104C85.9295 33.296 85.9375 33.504 85.9375 33.728V35.96C85.9375 36.504 85.9375 37.128 85.9375 37.832C85.9535 38.536 85.9695 39.192 85.9855 39.8L87.6655 40.136V41H82.0975V40.136L83.8735 39.8C83.8895 39.208 83.8975 38.56 83.8975 37.856C83.9135 37.136 83.9215 36.504 83.9215 35.96V33.92C83.9215 32.832 83.7695 32.08 83.4655 31.664C83.1615 31.232 82.6575 31.016 81.9535 31.016C81.4095 31.016 80.8895 31.128 80.3935 31.352C79.8975 31.576 79.3535 31.944 78.7615 32.456V35.96C78.7615 36.488 78.7615 37.112 78.7615 37.832C78.7775 38.536 78.7935 39.192 78.8095 39.8L80.4655 40.136V41H74.8975ZM102.146 41.312C101.218 41.312 100.33 41.096 99.4823 40.664C98.6503 40.216 97.9703 39.552 97.4423 38.672C96.9143 37.776 96.6503 36.672 96.6503 35.36C96.6503 34.032 96.9143 32.92 97.4423 32.024C97.9703 31.112 98.6503 30.432 99.4823 29.984C100.33 29.52 101.218 29.288 102.146 29.288C103.074 29.288 103.954 29.52 104.786 29.984C105.634 30.432 106.322 31.112 106.85 32.024C107.394 32.92 107.666 34.032 107.666 35.36C107.666 36.672 107.394 37.776 106.85 38.672C106.322 39.552 105.634 40.216 104.786 40.664C103.954 41.096 103.074 41.312 102.146 41.312ZM102.146 40.232C103.186 40.232 103.986 39.824 104.546 39.008C105.106 38.176 105.386 36.96 105.386 35.36C105.386 33.744 105.106 32.512 104.546 31.664C103.986 30.816 103.186 30.392 102.146 30.392C101.106 30.392 100.306 30.816 99.7463 31.664C99.2023 32.512 98.9303 33.744 98.9303 35.36C98.9303 36.96 99.2023 38.176 99.7463 39.008C100.306 39.824 101.106 40.232 102.146 40.232ZM109.75 41V40.136L111.478 39.824C111.494 39.216 111.502 38.56 111.502 37.856C111.518 37.136 111.526 36.504 111.526 35.96V34.808C111.526 34.152 111.518 33.608 111.502 33.176C111.502 32.744 111.486 32.288 111.454 31.808L109.558 31.592V30.752L112.918 29.288L113.278 29.528L113.542 32.36C113.942 31.4 114.454 30.648 115.078 30.104C115.718 29.56 116.358 29.288 116.998 29.288C117.366 29.288 117.71 29.368 118.03 29.528C118.35 29.688 118.582 29.904 118.726 30.176C118.726 31.344 118.254 31.928 117.31 31.928C117.038 31.928 116.782 31.88 116.542 31.784C116.302 31.672 116.07 31.52 115.846 31.328L115.558 31.064C115.078 31.416 114.678 31.848 114.358 32.36C114.038 32.872 113.774 33.472 113.566 34.16V35.96C113.566 36.488 113.566 37.104 113.566 37.808C113.582 38.512 113.598 39.168 113.614 39.776L115.582 40.136V41H109.75ZM125.112 30.392C124.664 30.392 124.208 30.52 123.744 30.776C123.296 31.032 122.904 31.44 122.568 32C122.248 32.56 122.04 33.304 121.944 34.232H126.312C126.888 34.232 127.264 34.112 127.44 33.872C127.632 33.632 127.728 33.336 127.728 32.984C127.728 32.52 127.608 32.096 127.368 31.712C127.144 31.312 126.832 30.992 126.432 30.752C126.048 30.512 125.608 30.392 125.112 30.392ZM125.088 41.312C123.472 41.312 122.176 40.792 121.2 39.752C120.224 38.696 119.736 37.248 119.736 35.408C119.736 34.176 119.984 33.104 120.48 32.192C120.992 31.28 121.664 30.568 122.496 30.056C123.344 29.544 124.264 29.288 125.256 29.288C126.088 29.288 126.84 29.472 127.512 29.84C128.184 30.208 128.72 30.736 129.12 31.424C129.52 32.096 129.72 32.92 129.72 33.896C129.72 34.168 129.704 34.424 129.672 34.664C129.64 34.888 129.6 35.08 129.552 35.24H121.896C121.928 36.712 122.296 37.832 123 38.6C123.704 39.368 124.632 39.752 125.784 39.752C126.552 39.752 127.192 39.6 127.704 39.296C128.216 38.976 128.688 38.568 129.12 38.072L129.696 38.528C129.248 39.376 128.64 40.056 127.872 40.568C127.104 41.064 126.176 41.312 125.088 41.312ZM139.732 35.36C139.732 36.928 140.044 38.088 140.668 38.84C141.308 39.576 142.108 39.944 143.068 39.944C143.596 39.944 144.06 39.84 144.46 39.632C144.876 39.408 145.308 39.048 145.756 38.552V31.904C145.212 31.424 144.724 31.096 144.292 30.92C143.86 30.744 143.444 30.656 143.044 30.656C142.452 30.656 141.9 30.824 141.388 31.16C140.892 31.48 140.492 31.992 140.188 32.696C139.884 33.384 139.732 34.272 139.732 35.36ZM145.996 41.24L145.828 39.584C145.412 40.128 144.932 40.552 144.388 40.856C143.86 41.16 143.22 41.312 142.468 41.312C141.492 41.312 140.636 41.064 139.9 40.568C139.164 40.072 138.588 39.384 138.172 38.504C137.772 37.608 137.572 36.576 137.572 35.408C137.572 34.176 137.796 33.104 138.244 32.192C138.692 31.28 139.3 30.568 140.068 30.056C140.836 29.544 141.708 29.288 142.684 29.288C143.244 29.288 143.78 29.4 144.292 29.624C144.82 29.848 145.332 30.256 145.828 30.848V25.424L143.788 25.184V24.344L147.532 23.264L147.868 23.456L147.772 26.864V39.848L149.716 40.136V41L145.996 41.24ZM150.949 41V40.136L152.749 39.8C152.765 39.192 152.773 38.536 152.773 37.832C152.789 37.112 152.797 36.488 152.797 35.96V34.832C152.797 34.176 152.789 33.632 152.773 33.2C152.773 32.752 152.757 32.288 152.725 31.808L150.805 31.592V30.752L154.501 29.288L154.861 29.528L154.789 32.792V35.96C154.789 36.488 154.789 37.112 154.789 37.832C154.805 38.536 154.821 39.192 154.837 39.8L156.517 40.136V41H150.949ZM153.781 26.648C153.333 26.648 152.949 26.504 152.629 26.216C152.325 25.928 152.173 25.56 152.173 25.112C152.173 24.648 152.325 24.28 152.629 24.008C152.949 23.72 153.333 23.576 153.781 23.576C154.229 23.576 154.605 23.72 154.909 24.008C155.229 24.28 155.389 24.648 155.389 25.112C155.389 25.56 155.229 25.928 154.909 26.216C154.605 26.504 154.229 26.648 153.781 26.648ZM172.123 41.36C170.507 41.36 169.083 41.008 167.851 40.304C166.635 39.584 165.683 38.592 164.995 37.328C164.323 36.064 163.987 34.608 163.987 32.96C163.987 31.744 164.187 30.632 164.587 29.624C165.003 28.6 165.571 27.712 166.291 26.96C167.027 26.208 167.883 25.624 168.859 25.208C169.851 24.792 170.931 24.584 172.099 24.584C172.755 24.584 173.491 24.664 174.307 24.824C175.123 24.968 175.931 25.272 176.731 25.736L176.827 29.216H175.339L174.859 26.432C174.427 26.192 174.003 26.024 173.587 25.928C173.187 25.832 172.795 25.784 172.411 25.784C171.339 25.784 170.363 26.056 169.483 26.6C168.603 27.144 167.899 27.952 167.371 29.024C166.859 30.08 166.603 31.392 166.603 32.96C166.603 34.528 166.843 35.848 167.323 36.92C167.803 37.992 168.467 38.8 169.315 39.344C170.179 39.888 171.155 40.16 172.243 40.16C172.707 40.16 173.179 40.112 173.659 40.016C174.155 39.904 174.635 39.736 175.099 39.512L175.579 36.728H177.067L176.971 40.208C176.235 40.608 175.451 40.896 174.619 41.072C173.803 41.264 172.971 41.36 172.123 41.36ZM187.984 41.24C187.408 41.24 186.928 41.072 186.544 40.736C186.16 40.4 185.92 39.952 185.824 39.392C185.168 40.032 184.592 40.512 184.096 40.832C183.6 41.152 183 41.312 182.296 41.312C181.416 41.312 180.656 41.064 180.016 40.568C179.392 40.056 179.08 39.304 179.08 38.312C179.08 37.848 179.184 37.416 179.392 37.016C179.616 36.616 180.016 36.224 180.592 35.84C181.168 35.456 181.992 35.072 183.064 34.688C183.432 34.56 183.856 34.424 184.336 34.28C184.816 34.136 185.296 34.008 185.776 33.896V33.296C185.776 32.128 185.6 31.352 185.248 30.968C184.896 30.584 184.32 30.392 183.52 30.392C183.344 30.392 183.144 30.4 182.92 30.416C182.712 30.432 182.48 30.472 182.224 30.536L181.768 32.096C181.544 32.864 181.128 33.248 180.52 33.248C179.848 33.248 179.472 32.92 179.392 32.264C179.616 31.352 180.144 30.632 180.976 30.104C181.824 29.56 182.856 29.288 184.072 29.288C185.336 29.288 186.272 29.608 186.88 30.248C187.488 30.872 187.792 31.944 187.792 33.464V38.576C187.792 39.088 187.872 39.456 188.032 39.68C188.192 39.888 188.4 39.992 188.656 39.992C188.864 39.992 189.04 39.944 189.184 39.848C189.328 39.752 189.464 39.624 189.592 39.464L190.072 39.992C189.784 40.456 189.464 40.784 189.112 40.976C188.776 41.152 188.4 41.24 187.984 41.24ZM181.216 37.952C181.216 38.592 181.4 39.048 181.768 39.32C182.136 39.592 182.592 39.728 183.136 39.728C183.376 39.728 183.6 39.696 183.808 39.632C184.032 39.568 184.296 39.448 184.6 39.272C184.904 39.08 185.296 38.808 185.776 38.456V34.784C185.36 34.896 184.952 35.024 184.552 35.168C184.152 35.296 183.824 35.408 183.568 35.504C182.88 35.776 182.368 36.056 182.032 36.344C181.696 36.632 181.472 36.912 181.36 37.184C181.264 37.456 181.216 37.712 181.216 37.952ZM195.011 41.312C194.339 41.312 193.723 41.232 193.163 41.072C192.603 40.928 192.027 40.704 191.435 40.4L191.339 37.76H192.659L193.115 39.848C193.675 40.104 194.323 40.232 195.059 40.232C195.971 40.232 196.643 40.064 197.075 39.728C197.523 39.392 197.747 38.952 197.747 38.408C197.747 37.896 197.563 37.488 197.195 37.184C196.827 36.864 196.267 36.576 195.515 36.32L194.411 35.912C193.531 35.592 192.827 35.176 192.299 34.664C191.771 34.152 191.507 33.488 191.507 32.672C191.507 32.08 191.667 31.528 191.987 31.016C192.307 30.504 192.779 30.088 193.403 29.768C194.027 29.448 194.787 29.288 195.683 29.288C196.339 29.288 196.931 29.376 197.459 29.552C198.003 29.712 198.531 29.952 199.043 30.272L198.947 32.72H197.699L197.315 30.8C196.771 30.528 196.219 30.392 195.659 30.392C194.923 30.392 194.363 30.544 193.979 30.848C193.611 31.136 193.427 31.528 193.427 32.024C193.427 32.552 193.587 32.952 193.907 33.224C194.243 33.496 194.819 33.784 195.635 34.088L196.379 34.352C197.579 34.8 198.427 35.312 198.923 35.888C199.435 36.464 199.691 37.128 199.691 37.88C199.691 38.488 199.515 39.056 199.163 39.584C198.811 40.096 198.291 40.512 197.603 40.832C196.915 41.152 196.051 41.312 195.011 41.312ZM210.601 41.24C210.025 41.24 209.545 41.072 209.161 40.736C208.777 40.4 208.537 39.952 208.441 39.392C207.785 40.032 207.209 40.512 206.713 40.832C206.217 41.152 205.617 41.312 204.913 41.312C204.033 41.312 203.273 41.064 202.633 40.568C202.009 40.056 201.697 39.304 201.697 38.312C201.697 37.848 201.801 37.416 202.009 37.016C202.233 36.616 202.633 36.224 203.209 35.84C203.785 35.456 204.609 35.072 205.681 34.688C206.049 34.56 206.473 34.424 206.953 34.28C207.433 34.136 207.913 34.008 208.393 33.896V33.296C208.393 32.128 208.217 31.352 207.865 30.968C207.513 30.584 206.937 30.392 206.137 30.392C205.961 30.392 205.761 30.4 205.537 30.416C205.329 30.432 205.097 30.472 204.841 30.536L204.385 32.096C204.161 32.864 203.745 33.248 203.137 33.248C202.465 33.248 202.089 32.92 202.009 32.264C202.233 31.352 202.761 30.632 203.593 30.104C204.441 29.56 205.473 29.288 206.689 29.288C207.953 29.288 208.889 29.608 209.497 30.248C210.105 30.872 210.409 31.944 210.409 33.464V38.576C210.409 39.088 210.489 39.456 210.649 39.68C210.809 39.888 211.017 39.992 211.273 39.992C211.481 39.992 211.657 39.944 211.801 39.848C211.945 39.752 212.081 39.624 212.209 39.464L212.689 39.992C212.401 40.456 212.081 40.784 211.729 40.976C211.393 41.152 211.017 41.24 210.601 41.24ZM203.833 37.952C203.833 38.592 204.017 39.048 204.385 39.32C204.753 39.592 205.209 39.728 205.753 39.728C205.993 39.728 206.217 39.696 206.425 39.632C206.649 39.568 206.913 39.448 207.217 39.272C207.521 39.08 207.913 38.808 208.393 38.456V34.784C207.977 34.896 207.569 35.024 207.169 35.168C206.769 35.296 206.441 35.408 206.185 35.504C205.497 35.776 204.985 36.056 204.649 36.344C204.313 36.632 204.089 36.912 203.977 37.184C203.881 37.456 203.833 37.712 203.833 37.952Z" fill="#C92D1F"/>
<path fill-rule="evenodd" clip-rule="evenodd" d="M6.10356 1.03359C5.41954 1.58102 3.76844 3.10578 2.43473 4.42204C-0.0685221 6.89217 -0.514502 7.74083 0.519236 8.06785C1.23385 8.29396 1.89175 7.79736 4.14727 5.32971C7.30146 1.87903 6.95771 1.9896 14.5202 1.9896C20.6284 1.9896 20.9251 2.01142 21.4144 2.4991C21.8009 2.88438 21.9069 3.26173 21.8496 4.04866C21.7812 4.98534 21.675 5.13782 20.7788 5.58359C20.06 5.94111 19.1486 6.10226 17.4941 6.16499C15.0421 6.25772 14.3202 6.58325 14.9336 7.32009C15.4276 7.91339 20.743 7.8467 21.9021 7.23282C23.2279 6.53069 23.888 5.39021 23.888 3.80172C23.888 2.55265 23.5762 1.78547 23.1818 1.17232C22.7875 0.559168 21.5672 0.026281 20.8637 0.00612319C20.1601 -0.0140347 14.4642 0.0220335 14.4642 0.0220335C14.4642 0.0220335 7.9992 -0.0374034 7.47159 0.291427C6.94399 0.620253 6.10356 1.03359 6.10356 1.03359ZM37.2677 1.97721C35.7133 2.46612 32.8424 4.98708 32.8424 5.86351C32.8424 7.01192 33.5585 6.80217 36.0509 4.92435C37.3637 3.93536 37.8246 3.72511 38.6815 3.72511C40.3549 3.72511 41.4302 5.26426 40.7081 6.62589C40.3154 7.36621 36.1163 11.5637 35.0878 12.2437C34.5935 12.5708 33.811 12.6506 31.1013 12.6506C27.627 12.6506 26.6241 12.9017 26.6241 13.7717C26.6241 14.5237 27.6337 14.702 31.2083 14.5802C35.2452 14.4429 35.9688 14.1905 37.8171 12.276C38.4327 11.6383 39.5692 10.6267 40.3425 10.028C41.8968 8.82478 42.7918 7.32307 42.7918 5.91731C42.7918 4.76245 41.818 2.96843 40.9079 2.44629C40.0094 1.93109 38.1691 1.69382 37.2677 1.97721ZM26.251 6.7387C23.0147 8.40479 22.1703 10.5236 22.1558 17.0129C22.1479 20.5571 22.0961 21.0492 21.692 21.4137C21.2937 21.7729 20.4483 21.824 14.9072 21.824C9.58061 21.824 8.48966 21.8852 8.02453 22.21L7.47159 22.5958L7.4803 41.6105C7.48701 56.0641 7.79122 60.7386 7.79122 61.1414C7.79122 61.3672 7.79131 61.5589 7.79127 62.365C7.79122 63.1711 9.16 62.9803 9.16 62.9803C10.2064 62.9808 29.1472 62.9773 29.1472 62.9773C29.1472 62.9773 47.5228 62.9798 49.1345 62.9741C49.5489 62.9726 49.841 61.8137 49.841 61.8137C49.841 60.6475 51 60.5216 51 41.3908C51 28.8677 50.9182 23.4035 50.7239 22.9786C50.2396 21.9192 49.6083 21.824 43.0763 21.824C35.9528 21.824 36.0439 21.849 35.8367 19.8311C35.5949 17.4768 34.0861 17.5995 34.0861 19.9734C34.0861 21.7253 33.8165 21.824 29.0296 21.824C23.5455 21.824 23.888 22.1619 23.888 16.7508C23.888 13.2897 23.9629 12.4696 24.3805 11.3569C24.9737 9.77683 26.0712 8.51363 27.0355 8.30115C28.4655 7.98628 29.4868 7.48968 29.5711 7.0682C29.7651 6.10028 27.8586 5.91086 26.251 6.7387ZM12.5124 13.0185C11.6424 13.3956 9.32914 15.4415 8.92768 16.189C8.7563 16.5081 8.77148 16.7583 8.97718 17.0052C9.43037 17.5494 9.87113 17.4388 10.8909 16.5245C12.6826 14.9184 13.5166 14.634 16.4347 14.634C18.147 14.634 19.1666 14.5304 19.3611 14.3365C19.8093 13.8897 19.7207 13.1965 19.1785 12.9072C18.4505 12.5189 13.4738 12.602 12.5124 13.0185ZM48.4945 23.9649C49.0052 24.612 49.0101 24.787 49.0101 42.3116C49.0101 59.6747 49.0009 60.0143 48.5127 60.501C48.0239 60.9882 47.6836 60.9969 29.0689 60.9969C11.7881 60.9969 10.0826 60.9609 9.66766 60.5866C9.23487 60.1963 9.21273 59.3015 9.21273 42.2398C9.21273 24.6338 9.22193 24.2941 9.7102 23.8074C10.199 23.3202 10.5392 23.3116 29.0933 23.3116H47.9791L48.4945 23.9649ZM33.2155 30.0991C30.8871 31.1937 29.9619 32.9935 30.1586 36.0467C30.3031 38.2932 30.8286 39.1585 32.7085 40.5427L33.8471 41.1625L34.0861 46.7285C34.0861 49.5083 34.154 51.9593 34.2371 52.175C34.4328 52.6835 35.4805 52.6835 35.6763 52.175C35.7593 51.9593 35.8272 49.5534 35.8272 46.8282C35.8272 42.0674 35.9787 40.9146 36.6045 40.9146C37.3421 40.5427 38.7904 39.5222 39.1598 38.7529C39.7157 37.5945 39.9134 35.0587 39.5747 33.4318C39.217 31.7139 38.1793 30.5613 36.4332 29.9424C35.3202 29.548 34.0861 29.6899 33.2155 30.0991ZM18.4246 30.4852C18.2766 30.7609 18.1671 32.7225 18.1671 35.0967C18.1671 35.0967 18.2915 38.6465 18.4063 39.0928C18.5211 39.5391 18.7794 39.9228 19.0281 40.1708C19.2769 40.4187 19.8987 40.7906 20.2718 40.9146C20.6449 41.0385 21.3335 41.3546 21.4915 41.4285C21.6494 41.5024 22.1469 41.6264 22.1469 41.6264V46.8354C22.1469 50.7088 22.2215 51.8289 22.5053 52.21C22.7923 52.595 22.9538 52.6364 23.3137 52.4168C23.7174 52.1706 23.7763 51.617 23.888 47.036C23.9587 44.1352 24.1198 41.8247 24.2611 41.6864C24.3979 41.5527 25.0675 41.2379 25.749 40.9867C26.7129 40.6319 27.1126 40.3116 27.5484 39.5448C28.061 38.6423 28.1085 38.2394 28.1125 34.7619C28.1148 32.6102 28.0048 30.7569 27.8591 30.4852C27.5484 29.9067 26.736 29.8534 26.5263 30.3979C26.4433 30.6136 26.3754 32.4907 26.3754 34.5693C26.3754 38.3051 26.3679 38.3557 25.7379 38.9458C25.2093 39.4406 24.7862 39.5586 23.2654 39.6352C21.5668 39.7208 21.3838 39.6806 20.794 39.0928C20.1642 38.4648 20.157 38.414 20.157 34.5291C20.157 31.8044 20.0655 30.5095 19.8585 30.3032C19.4103 29.8564 18.7149 29.9447 18.4246 30.4852ZM22.4043 30.4852C22.2628 30.749 22.1469 32.0754 22.1469 33.4328C22.1469 35.4817 22.2265 35.9991 22.6157 36.4784C23.018 36.9732 23.1421 37.0082 23.4863 36.7233C23.8127 36.4533 23.888 35.8657 23.888 33.5905C23.888 32.0503 23.8201 30.6136 23.737 30.3979C23.5274 29.8534 22.715 29.9067 22.4043 30.4852ZM37.1857 32.237C38.0249 33.0735 37.8171 33.1968 37.8171 35.4601C37.8171 37.7235 37.8106 37.7475 36.9714 38.584C36.023 39.5294 35.0462 39.6781 33.8471 39.0601C32.4402 38.3349 32.0962 37.5921 32.0962 35.2779C32.0962 33.2216 32.1287 33.0629 32.9572 32.237C33.679 31.5175 33.9588 31.4932 34.9567 31.4932C35.9546 31.4932 36.4639 31.5175 37.1857 32.237Z" fill="#C92D1F"/>
</g>
<defs>
<clipPath id="clip0_1_2">
<rect width="214" height="63" fill="white"/>
</clipPath>
</defs>
</svg>
