<svg width="25" height="24" viewBox="0 0 25 24" fill="none" xmlns="http://www.w3.org/2000/svg">
<path d="M19.0204 18.0518L14.4552 13.4867C15.1636 12.5709 15.5469 11.4512 15.5469 10.2734C15.5469 8.86367 14.9966 7.5418 14.0018 6.54512C13.0068 5.54844 11.6814 5 10.2734 5C8.86543 5 7.54004 5.5502 6.54512 6.54512C5.54844 7.54004 5 8.86367 5 10.2734C5 11.6814 5.5502 13.0068 6.54512 14.0018C7.54004 14.9984 8.86367 15.5469 10.2734 15.5469C11.4512 15.5469 12.5691 15.1637 13.485 14.4571L18.05 19.0204C18.0633 19.0338 18.0793 19.0443 18.0968 19.0515C18.1143 19.0588 18.133 19.0625 18.1519 19.0625C18.1708 19.0625 18.1897 19.0588 18.2072 19.0515C18.2247 19.0443 18.2406 19.0338 18.254 19.0204L19.0204 18.2556C19.0338 18.2422 19.0443 18.2263 19.0515 18.2088C19.0588 18.1913 19.0625 18.1727 19.0625 18.1538C19.0625 18.1348 19.0588 18.116 19.0515 18.0985C19.0443 18.081 19.0338 18.0652 19.0204 18.0518ZM13.0578 13.0578C12.3125 13.8014 11.3246 14.2109 10.2734 14.2109C9.22227 14.2109 8.23438 13.8014 7.48906 13.0578C6.74551 12.3125 6.33594 11.3246 6.33594 10.2734C6.33594 9.22227 6.74551 8.23262 7.48906 7.48906C8.23438 6.74551 9.22227 6.33594 10.2734 6.33594C11.3246 6.33594 12.3143 6.74375 13.0578 7.48906C13.8014 8.23438 14.2109 9.22227 14.2109 10.2734C14.2109 11.3246 13.8014 12.3143 13.0578 13.0578Z" fill="#474747"/>
</svg>
