<svg width="27" height="29" viewBox="0 0 27 29" fill="none" xmlns="http://www.w3.org/2000/svg">
<mask id="mask0_20_66" style="mask-type:luminance" maskUnits="userSpaceOnUse" x="3" y="4" width="21" height="21">
<path d="M24 4H3V25H24V4Z" fill="white"/>
</mask>
<g mask="url(#mask0_20_66)">
<path opacity="0.855" fill-rule="evenodd" clip-rule="evenodd" d="M20.115 24.8951C19.555 24.8951 18.995 24.8951 18.435 24.8951C18.0899 24.7236 17.8449 24.4436 17.7 24.0551C17.5956 23.4994 17.5606 22.9394 17.595 22.3751C16.895 22.3751 16.195 22.3751 15.495 22.3751C15.5295 22.9394 15.4945 23.4994 15.39 24.0551C15.2452 24.4436 15.0002 24.7236 14.655 24.8951C14.095 24.8951 13.535 24.8951 12.975 24.8951C12.1459 24.1984 11.9359 23.3234 12.345 22.2701C11.9005 21.9066 11.5855 21.4516 11.4 20.9051C10.21 16.1451 9.02003 11.3851 7.83002 6.62505C7.73233 6.32458 7.55731 6.07958 7.30502 5.89005C6.41223 5.63918 5.50221 5.53418 4.57502 5.57505C4.61071 5.85269 4.54071 6.09768 4.36502 6.31005C3.8549 6.45774 3.3649 6.42274 2.89502 6.20505C2.89502 5.78505 2.89502 5.36505 2.89502 4.94505C4.65039 4.63662 6.4004 4.67162 8.14502 5.05005C8.46867 5.38171 8.71366 5.76671 8.88002 6.20505C9.22889 7.53036 9.54389 8.86037 9.82502 10.1951C14.235 10.1951 18.645 10.1951 23.055 10.1951C22.26 13.118 21.28 15.988 20.115 18.8051C17.4587 19.0149 14.7987 19.0849 12.135 19.0151C12.1962 19.7936 12.4062 20.5286 12.765 21.2201C15.3463 21.448 17.9363 21.623 20.535 21.7451C21.1992 22.9454 21.0592 23.9954 20.115 24.8951ZM10.035 11.2451C13.9184 11.0357 17.8385 10.9657 21.795 11.0351C21.0178 13.3612 20.1778 15.6712 19.275 17.9651C16.7589 18.1749 14.2389 18.2449 11.715 18.1751C11.2582 15.8164 10.6982 13.5064 10.035 11.2451ZM13.395 22.5851C14.3733 22.4832 14.6533 22.8682 14.235 23.7401C13.2329 23.9103 12.9529 23.5253 13.395 22.5851ZM18.855 22.5851C19.8333 22.4832 20.1133 22.8682 19.695 23.7401C18.6929 23.9103 18.4129 23.5253 18.855 22.5851Z" fill="#474747"/>
</g>
</svg>
