<svg width="15" height="15" viewBox="0 0 15 15" fill="none" xmlns="http://www.w3.org/2000/svg">
<g clip-path="url(#clip0_16_53)">
<path d="M14.6515 6.24209C14.5553 5.94464 14.2915 5.73338 13.9793 5.70524L9.73947 5.32026L8.06292 1.39611C7.9393 1.10852 7.65776 0.922363 7.34495 0.922363C7.03215 0.922363 6.75061 1.10852 6.62699 1.39679L4.95043 5.32026L0.709893 5.70524C0.398319 5.73405 0.135163 5.94464 0.0384405 6.24209C-0.0582818 6.53954 0.0310434 6.8658 0.266741 7.07146L3.47158 9.88212L2.52655 14.045C2.45739 14.3511 2.5762 14.6675 2.83016 14.8511C2.96667 14.9497 3.12638 14.9999 3.28744 14.9999C3.4263 14.9999 3.56404 14.9625 3.68766 14.8885L7.34495 12.7027L11.0009 14.8885C11.2684 15.0494 11.6057 15.0348 11.8591 14.8511C12.1131 14.6669 12.2318 14.3504 12.1627 14.045L11.2177 9.88212L14.4225 7.07202C14.6582 6.8658 14.7482 6.5401 14.6515 6.24209Z" fill="#C92D1F"/>
</g>
<defs>
<clipPath id="clip0_16_53">
<rect width="15" height="15" fill="white"/>
</clipPath>
</defs>
</svg>
